<?xml version="1.0" encoding="utf-8"?>
<!-- Generator: Adobe Illustrator 22.0.0, SVG Export Plug-In . SVG Version: 6.00 Build 0)  -->
<svg version="1.1" id="Layer_1" xmlns="http://www.w3.org/2000/svg" xmlns:xlink="http://www.w3.org/1999/xlink" x="0px" y="0px"
	 viewBox="0 0 466.4 222.9" style="enable-background:new 0 0 466.4 222.9;" xml:space="preserve">
<style type="text/css">
	.st0{fill:#6F4C20;}
	.st1{fill:#EF9C23;}
</style>
<title>logosP</title>
<g id="Layer_2_1_">
	<g id="Layer_1-2">
		<path class="st0" d="M98.2,222.9c-1.1-4.3-2.1-8.4-3.2-12.7c0.7-0.1,1.3-0.3,1.9-0.5c15.3-3.5,30.8-6.4,46.3-8.6
			c12.7-1.8,25.4-3.5,38.2-5c9.2-1,18.5-1.8,27.8-2.4s18.8-1.1,28.2-1.4c13.8-0.4,27.7-0.4,41.5,0.4c9.5,0.6,19,1.2,28.5,2.2
			c7.9,0.8,15.7,2.1,23.5,3.2c1.4,0.2,2.8,0.5,4.3,0.7c0.6,0.1,1.3,0.3,2.2,0.5c-0.8,4.3-1.6,8.4-2.3,12.7c-1.1-0.2-2.1-0.3-3.1-0.5
			c-20.6-3.6-41.5-5.7-62.4-6.1c-10.3-0.3-20.7-0.2-31,0c-12.1,0.2-24.2,0.9-36.2,1.9c-32.9,2.6-65.5,7.3-97.8,14.2
			C102.3,221.9,100.3,222.4,98.2,222.9z"/>
		<path class="st0" d="M90.7,146.1c12.7,10.3,25.2,20.4,37.9,30.8c-3.1,3.7-6,7.2-9,10.8c-10.4-8.4-20.6-16.7-30.8-24.9
			c-0.1,0-0.2,0.2-0.4,0.2c1,7.9,2.3,15.9,4,23.9c-4.5,1.2-9,2.3-13.4,3.4c-4.1-10.4-10.7-69.4-8.8-78.3c4.7,0,9.3,0,14.2,0
			c0.2,6.5,0.1,12.8,0.7,19.5c8.3-8.5,16.4-16.7,24.5-25c3.9,2.7,7.8,5.3,11.9,8.1C111.2,125.2,101,135.6,90.7,146.1z"/>
		<path class="st0" d="M328,182.8c-4.7-0.9-9.1-1.7-13.6-2.6c0.2-1.6,0.4-3.1,0.7-4.9c-1,0.1-1.9,0.2-2.8,0.3
			c-4.5,0.7-9.2,0.4-13.6-0.8c-10.6-3.3-14.4-12.2-15.1-18.8c-1.4-12.5,8.1-22.5,19.2-24.4c3.2-0.5,6.5-0.6,9.8-0.1
			c0.6,0.1,1.4,0.1,2.3,0.1c-1.4-3-3.2-5.1-6.3-6c-2.8-0.7-5.6-0.6-8.4,0.1c-2.6,0.6-5.1,1.4-8.1,2.3c-2.2-3.8-4.5-7.8-6.9-11.9
			c0.4-0.3,0.8-0.5,1.2-0.7c6.3-3.1,13.3-4.5,20.4-4.2c9.5,0.5,16.5,5.1,20.8,13.7c2.2,4.7,3.6,9.8,4,15c0.7,8.2,0.5,16.5-0.6,24.7
			c-0.7,5.3-1.6,10.7-2.4,16C328.5,181.2,328.2,181.9,328,182.8z M317.8,147.1c-3.8-1.6-8-2.2-12.1-1.7c-2.2,0.3-4.2,1.4-5.7,3
			c-2.2,2.2-2.9,5.5-1.7,8.4c0.8,2.8,3.3,4.8,6.2,5c2.4,0.3,4.8,0.2,7.2-0.2c1.9-0.3,3.7-0.7,5.5-1.4
			C317.3,155.7,317.6,151.4,317.8,147.1L317.8,147.1z"/>
		<path class="st0" d="M270.6,158.9c3.2,3.3,6.3,6.5,9.6,9.9c-0.6,0.5-1.1,0.9-1.6,1.3c-5.4,4-11.7,6.5-18.4,7.2
			c-5.8,0.8-11.8,0-17.1-2.5c-8.2-3.9-13-10.7-15.3-19.3c-1.8-7.2-1.6-14.8,0.4-21.9c1-4.2,2.7-8.2,5-11.8
			c4.6-6.7,10.6-11.2,18.7-12.6c3.6-0.7,7.3-0.3,10.7,0.9c6.5,2.5,10.3,7.3,11.7,14c2,9.4-1.1,17-8.2,23.2c-3.5,3-7.4,5.4-11.7,7.2
			c-2.6,1.1-5.4,2.1-8,3.1l-1.9,0.7c0.7,1.2,1.6,2.2,2.7,2.9c3.1,2.3,6.7,2.8,10.5,2.5c4.3-0.3,8.4-1.8,12-4.2
			C269.9,159.2,270.2,159.1,270.6,158.9z M240.7,144.5c0.5,0,0.6,0.1,0.8,0.1c4.7-1.5,9.3-3.2,13.2-6.1c1.5-1.1,2.8-2.4,4-3.9
			c1.9-2.4,2.4-5.6,1.3-8.5c-0.6-2.3-2.9-3.8-5.3-3.3c-3.1,0.5-5.9,2.1-7.9,4.5C242.6,132.1,241.4,138.1,240.7,144.5z"/>
		<path class="st0" d="M351.2,118.1c4.6,0.8,9,1.6,13.5,2.4c-0.5,2.8-0.9,5.4-1.4,8.4c0.7-0.5,1-0.7,1.4-1.1
			c2.9-2.6,6.6-4.3,10.4-4.9c7.8-1.2,14.6,1.8,18.3,9.3c1.6,3.5,2.6,7.3,2.8,11.1c0.5,7.1,0.1,14.2-1.1,21.3c-1.2,8.1-3,16.1-5.3,24
			l-0.7,2.3l-13-4c0.1-0.5,0.2-1.1,0.3-1.6c2.9-9.7,4.9-19.6,5.9-29.6c0.6-4.5,0.5-9.1-0.2-13.6c-0.3-1.3-0.7-2.7-1.2-3.9
			c-0.4-1.3-1.7-2-3-1.7c-1.2,0.2-2.3,0.6-3.4,1.2c-1.6,1.1-3,2.3-4.3,3.8c-2.6,3.1-4.7,6.5-6.4,10.1c-3.8,7.9-6.8,16.1-9,24.5
			c-0.6,2.2-1.1,4.4-1.8,6.8c-4.5-0.9-8.9-1.7-13.5-2.6C343.6,159.6,347.3,139,351.2,118.1z"/>
		<path class="st0" d="M179.4,147c-0.6,9.3-2.1,15.6-5.5,21.4c-3.1,5.6-7.4,9.9-13.7,11.5c-9.8,2.5-18.4,0.1-25.4-7.2
			c-5.1-5.3-7.8-11.8-9-19c-1.3-7.8-0.6-15.3,2.8-22.5c4.1-8.5,10.8-13.9,20.4-15c12.6-1.4,22.9,5,27.6,16.7
			C178.8,138.4,179.6,143.9,179.4,147z M165.5,148.3c-0.1-1.1-0.2-3.3-0.5-5.3c-0.5-3.4-1.9-6.6-4-9.2c-4.2-5.3-13.5-5.6-17.8,0
			c-1.2,1.5-2.1,3.1-2.8,4.9c-2.7,7.7-1.8,15.1,2.3,22.1c1,1.8,2.4,3.3,4.1,4.4c5.6,3.9,11.9,2.5,15.2-3.4c0.4-0.7,0.8-1.5,1.1-2.3
			C164.4,155.9,165.3,152.1,165.5,148.3z"/>
		<path class="st0" d="M198.8,115.4l0.6,6.7c1.5-1.3,2.7-2.5,4.1-3.6c1.5-1.1,3-2,4.7-2.8c1.6-0.8,3.3-1.3,5-1.8
			c1.8-0.4,3.6-0.6,5.4-0.7c1.7-0.1,3.5,0.1,5.5,0.3c-0.5,4.5-1.3,8.8-2,13.3c-0.5,0-1.1,0-1.6,0c-4.3-0.4-8.4,1.5-11,5
			c-2.3,3.1-4,6.7-5,10.5c-1.4,4.9-1.4,9.8-1.4,14.8c0.1,6.4,0.1,13,0.2,19.4l-0.1,0.9c-4.4,0.4-8.9,0.5-13.5,0.7
			c-1.7-20.6-3.4-41-5.1-61.6C189.5,116.2,194.1,115.8,198.8,115.4z"/>
		<path class="st1" d="M387.2,27.9l1.3-1.4c1.1-1.3,2.3-2.6,3.5-3.7c5.8-5.3,14.9-4.9,20.2,0.9c0.4,0.4,0.7,0.8,1,1.2
			c1.1,1.7,2.1,3.5,3,5.4c0.3,0.6,0.5,1.1,0.9,2c0.7-0.8,1.3-1.3,1.9-1.9c2.1-2.3,4.7-4.2,7.5-5.6c3-1.4,6.4-2,9.7-1.7
			c4.6,0.3,8.8,2.7,11.4,6.6c2.1,3.1,3.4,6.5,4.1,10.1c0.9,4.9,1.3,9.9,1.2,14.9c-0.2,7.1-0.8,14.1-1.7,21.1
			c-0.5,4.4-1.4,8.7-2.2,13c-0.1,0.4-0.2,0.7-0.3,1.1c-4.5-0.9-8.9-1.7-13.5-2.6c0.1-1.1,0.1-2,0.3-2.8c0.2-1.6,0.5-3.2,0.7-4.8
			c1.2-6.6,1.9-13.3,2.2-20c0.2-5.7,0.3-11.5-0.9-17.1c-0.3-1.6-0.8-3.2-1.5-4.8c-0.6-1.5-1.5-1.8-2.9-1c-1.2,0.7-2.3,1.6-3.4,2.6
			c-2.5,2.9-4.5,6.1-5.9,9.6c-2.4,5.5-4.2,11.3-5.5,17.2c-0.2,0.8-0.4,1.5-0.6,2.4c-1.1-0.1-2.1-0.1-3.1-0.3
			c-3.1-0.5-6.3-0.9-9.3-1.5c-1.4-0.3-1.5-0.3-1.3-1.6c0.2-1.8,0.4-3.7,0.5-5.5c0.4-6.6,0.6-13.2-0.6-19.7c-0.4-1.7-0.8-3.5-1.3-5.2
			c-0.3-0.7-0.6-1.4-1.1-2c-0.6,0.6-1.2,1.3-1.7,1.9c-2.1,3.2-3.8,6.6-5.1,10.1c-2.8,7.2-5,14.5-6.7,22c-1,4.7-2.1,9.4-3,14.1
			c-0.3,1.7-0.6,1.9-2.3,1.8l-10.4-1c-1.7-0.2-1.8-0.4-1.7-2.1c0.2-5.4,0.4-10.9,0.5-16.3c0.1-2.4,0.2-5,0.3-7.4
			c0.2-5.2,0.3-10.4,0.4-15.6c0.1-2.1,0.1-4.2,0.2-6.4c0.1-3.5,0.2-7,0.3-10.5l0.1-0.7c0.1-1.6,0.1-1.7,1.7-1.6
			c3.6,0.1,7.3,0.2,11,0.4c2,0.1,2,0.2,1.8,2.1C386.8,25,386.9,26.5,387.2,27.9z"/>
		<path class="st1" d="M13.6,18.8c2,0,3.8-0.1,5.7-0.2c2.4-0.1,4.8-0.1,7.2-0.1c1.6,0,1.6,0.1,1.6,1.7c0.2,5.2,0.5,10.4,0.8,15.6
			c0.1,0.7,0.2,1.5,0.3,2.2c3.2-2.9,5.8-5.8,8.6-8.6s5.6-5.7,8.5-8.6l8.5-8.5l12.1,7.4c-0.6,0.7-1.1,1.3-1.6,1.8
			c-9.5,9.6-19,19.3-28.4,29c-0.5,0.5-0.9,1.1-1.6,1.8C48.8,62.2,62.1,72,75.5,82.1c-3,3.6-5.8,6.9-8.9,10.5
			c-0.5-0.3-1.1-0.7-1.6-1.1c-10-7.3-19.9-14.6-29.9-21.9c-0.5-0.4-1.2-0.7-1.8-0.9c0.4,4.1,1,8.1,1.8,12.1c0.7,4,1.6,7.9,2.4,12
			c-4.5,1.3-9,2.4-13.5,3.6C20,87.9,12.3,31.1,13.6,18.8z"/>
		<path class="st1" d="M283.5,39.4c-0.6-1-0.8-1.8-1.3-2.4c-2-3-5.5-4.6-9-4.4c-4.2,0.1-8.3,1-12.2,2.5c-0.4,0.1-0.9,0.3-1.5,0.5
			c-2.4-3.8-4.8-7.5-7.2-11.4c0.4-0.3,0.9-0.6,1.3-0.8c6-2.7,12.4-4.1,19-4.3c3.9-0.1,7.8,0.5,11.4,2c6.6,2.7,11,7.8,13.6,14.3
			c1.8,4.6,2.9,9.4,3.2,14.4c0.8,8.5,0,16.9-0.9,25.4c-0.5,4.4-1.3,8.9-2,13.3c-0.2,1.1-0.4,1.3-1.6,1.2c-2.3-0.3-4.5-0.7-6.8-1
			c-1.2-0.2-2.5-0.5-3.7-0.7c-1.9-0.3-2.1-0.4-1.8-2.3l0.2-2.3c0-0.2-0.1-0.3-0.1-0.7c-0.7,0.1-1.4,0-2.1,0.2
			c-4,0.7-8.1,0.7-12.2,0.1c-12.2-1.9-18.3-11.1-19-20.1c-0.5-7.1,2.2-12.9,7.4-17.5c4.7-4,10.6-6.3,16.8-6.3c2.2,0,4.5,0.2,6.7,0.3
			C282.3,39.5,282.9,39.5,283.5,39.4z M279.6,52.7c-1.8,0-3.4-0.1-5,0.1c-3.4,0.2-6.6,2-8.4,5c-2.2,3.8-0.9,8.7,2.9,10.9
			c1,0.6,2,0.9,3.1,1c4.4,0.7,8.6-0.3,12.9-1.4c0.8-0.2,1.4-1,1.2-1.8c0.1-3.6,0.2-7.2,0.3-10.8c0.1-0.8-0.4-1.5-1.2-1.7
			C283.5,53.5,281.5,53.1,279.6,52.7L279.6,52.7z"/>
		<path class="st1" d="M326.6,68.8c0.7,1.5,1.8,2.7,3.2,3.6c3,2,6.6,3.1,10.3,2.9c4.7-0.1,9.2-1.3,13.3-3.7c0.2-0.1,0.3-0.2,0.5-0.2
			c0.2,0,0.4-0.1,0.6-0.1c2.9,3.1,5.9,6.4,9.1,9.8c-0.6,0.5-1.1,0.9-1.5,1.2c-5.9,3.8-12.8,5.9-19.8,6.2c-4.7,0.3-9.4-0.3-13.9-1.8
			c-10.1-3.8-16.2-11.1-18.5-21.6c-1.1-5.2-1.1-10.6,0-15.9c0.9-5.3,2.8-10.3,5.6-14.9c5.4-8.3,12.9-13.4,22.9-14
			c12.5-0.8,20.5,7,21.5,17.7c0.7,7.8-2.2,14.1-8,19.2c-4.6,4.1-10.1,6.7-16,8.6c-2.5,0.8-5,1.5-7.6,2.2
			C327.7,68.3,327.1,68.6,326.6,68.8z M323.6,55.5c6.3-1.6,12.2-3.3,17.2-7.2c1-0.8,1.9-1.7,2.6-2.7c1.9-2.4,2.4-5.6,1.4-8.4
			c-0.5-2.1-2.3-3.5-4.4-3.6c-1.3,0-2.6,0.1-3.9,0.5c-4.1,1.4-7.5,4.3-9.5,8.2c-1.9,3.7-3.2,7.6-3.7,11.7
			C323.4,54.5,323.5,55,323.6,55.5L323.6,55.5z"/>
		<path class="st1" d="M77.7,14.6c4.8-0.4,9.5-0.9,14.3-1.2c0.7,1.7,0.5,3.3,0.6,4.8c0.4,7.2,0.7,14.4,1,21.6c0,1,0.1,1.9,0.2,2.9
			c0,0.3,0.2,0.6,0.3,1.2c2.5-1.8,4.5-3.5,6.6-5.2s4.3-3.4,6.5-5.2c2.2-1.7,4.3-3.4,6.4-5.1c3.7,2.8,7.1,5.9,10.3,9.3
			c-8.2,6.8-16.5,13.6-24.9,20.5c0.6,0.6,1,1,1.4,1.5c8.8,8.2,17.5,16.5,26.4,24.7c0.5,0.5,0.9,1,1.4,1.4c-0.6,1.1-7.8,8.1-9.8,9.4
			c-7.2-6.7-14.4-13.3-21.8-20.2c-0.2,0.4-0.4,0.9-0.5,1.3c0,4.7,0.1,9.4,0.1,14.1c0,3.2,0,3.4-3.1,3.5c-3.6,0.2-7.1,0.2-10.9,0.4
			c-0.9-13.3-1.6-26.5-2.3-39.7S78.4,28.2,77.7,14.6z"/>
		<path class="st1" d="M169.6,25.8c4.4-1.4,8.6-2.8,13.1-4.2c0.3,0.7,0.6,1.2,0.8,1.8c2.6,8,4.3,16.3,4.9,24.7
			c0.4,7.5,0,14.8-2.9,21.8c-4.4,10.4-12.1,16.4-23.4,17.3c-7.3,0.6-13.6-2.2-18.7-7.5c-4.5-4.7-7.2-10.3-8.9-16.5
			c-1.8-6.5-2.8-13.2-3-20c-0.2-5.3-0.1-10.5,0.4-15.8l0.1-1.2c0.1-0.8,0.5-1.2,1.4-1.1c2.2,0.3,4.3,0.4,6.5,0.7
			c1.5,0.2,3.1,0.4,4.6,0.7c1.4,0.2,1.5,0.3,1.4,1.6c-0.1,2.6-0.4,5.2-0.4,7.7c-0.3,9.2,0.3,18.3,3.4,27.1c1,2.9,2.5,5.6,4.5,7.8
			c3.6,3.9,8.2,4.7,12.9,2.2c3.2-1.8,5.7-4.8,6.8-8.3c1.3-3.8,1.8-7.7,1.7-11.7c-0.2-8.8-1.8-17.5-4.7-25.8
			C169.8,26.7,169.7,26.2,169.6,25.8z"/>
		<path class="st1" d="M216.2,93.1c1.5-0.2,2.7-0.3,4-0.5c6-0.8,9-5.1,9.8-10.2c0.4-3.4,0.3-6.7-0.3-10.1c-0.8-7-1.8-14-2.5-21
			c-0.4-4.2-0.4-8.5-0.4-12.7c0-3.5,0.4-7,0.6-10.5c0.1-2,0.2-2,2.1-1.8c3.1,0.3,6.3,0.6,9.4,0.9l0.7,0.1c2.4,0.4,2.5,0.4,2.2,2.8
			c-1.2,10-0.4,20,0.8,30c0.7,5.4,1.3,10.8,1.6,16.3s0.3,10.9-2.4,15.8c-4.6,8.5-11.7,13.5-21.4,14.3c-0.7,0-1.5,0-2.2-0.1
			c-1.7-0.2-1.9-0.2-1.9-1.9c-0.1-3.2-0.1-6.4-0.2-9.6C216.1,94.2,216.2,93.8,216.2,93.1z"/>
		<path class="st1" d="M200.7,0l14.2,1.3c0.1,0.3,0.1,0.7,0.1,1c-0.8,7.6-1.6,15.2-2.2,22.8c-0.4,5-0.6,9.9-0.9,15
			s-0.3,9.8-0.4,14.7c-0.1,5.2-0.1,10.4,0,15.6c0.1,3.7,0.7,7.4,1,11.1c0,0.4,0.1,0.7,0.2,1.2c-4.4,1.3-8.7,2.6-13.4,4
			c-0.3-0.8-0.5-1.7-0.7-2.5c-0.5-4-1-7.9-1.3-12c-0.2-5.1-0.3-10.2-0.3-15.3c0-3.8,0.2-7.6,0.3-11.3c0.3-7,0.5-14.1,1-21.1
			c0.5-7.8,1.3-15.6,2-23.3C200.5,0.8,200.6,0.4,200.7,0z"/>
		<path class="st1" d="M234,19.4c-2-0.2-3.9-0.9-5.4-2.2c-3.7-2.9-4.4-8.4-1.5-12.1c0.4-0.5,0.8-0.9,1.2-1.3
			c4.1-3.4,10.1-3.4,14.1,0.1c3.6,3.1,4,8.5,0.9,12.1c-0.2,0.3-0.5,0.6-0.8,0.8C240.3,18.9,237.1,19.9,234,19.4z"/>
	</g>
</g>
</svg>
